<?xml version="1.0" encoding="UTF-8" standalone="no"?>
<!-- Generator: Adobe Illustrator 16.0.0, SVG Export Plug-In . SVG Version: 6.00 Build 0)  -->

<svg
   xmlns:dc="http://purl.org/dc/elements/1.1/"
   xmlns:cc="http://creativecommons.org/ns#"
   xmlns:rdf="http://www.w3.org/1999/02/22-rdf-syntax-ns#"
   xmlns:svg="http://www.w3.org/2000/svg"
   xmlns="http://www.w3.org/2000/svg"
   xmlns:sodipodi="http://sodipodi.sourceforge.net/DTD/sodipodi-0.dtd"
   xmlns:inkscape="http://www.inkscape.org/namespaces/inkscape"
   version="1.1"
   id="Layer_1"
   x="0px"
   y="0px"
   width="169.063px"
   height="169.063px"
   viewBox="0 0 169.063 169.063"
   style="enable-background:new 0 0 169.063 169.063;"
   xml:space="preserve"
   sodipodi:docname="insta.svg"
   inkscape:version="0.92.4 (33fec40, 2019-01-16)"><metadata
   id="metadata1095"><rdf:RDF><cc:Work
       rdf:about=""><dc:format>image/svg+xml</dc:format><dc:type
         rdf:resource="http://purl.org/dc/dcmitype/StillImage" /></cc:Work></rdf:RDF></metadata><defs
   id="defs1093" /><sodipodi:namedview
   pagecolor="#ffffff"
   bordercolor="#666666"
   borderopacity="1"
   objecttolerance="10"
   gridtolerance="10"
   guidetolerance="10"
   inkscape:pageopacity="0"
   inkscape:pageshadow="2"
   inkscape:window-width="1610"
   inkscape:window-height="986"
   id="namedview1091"
   showgrid="false"
   inkscape:zoom="1.3959293"
   inkscape:cx="84.531502"
   inkscape:cy="84.531502"
   inkscape:window-x="70"
   inkscape:window-y="27"
   inkscape:window-maximized="1"
   inkscape:current-layer="Layer_1" />
<g
   id="g1058">
	<path
   d="M122.406,0H46.654C20.929,0,0,20.93,0,46.655v75.752c0,25.726,20.929,46.655,46.654,46.655h75.752   c25.727,0,46.656-20.93,46.656-46.655V46.655C169.063,20.93,148.133,0,122.406,0z M154.063,122.407   c0,17.455-14.201,31.655-31.656,31.655H46.654C29.2,154.063,15,139.862,15,122.407V46.655C15,29.201,29.2,15,46.654,15h75.752   c17.455,0,31.656,14.201,31.656,31.655V122.407z"
   id="path1052" />
	<path
   d="M84.531,40.97c-24.021,0-43.563,19.542-43.563,43.563c0,24.02,19.542,43.561,43.563,43.561s43.563-19.541,43.563-43.561   C128.094,60.512,108.552,40.97,84.531,40.97z M84.531,113.093c-15.749,0-28.563-12.812-28.563-28.561   c0-15.75,12.813-28.563,28.563-28.563s28.563,12.813,28.563,28.563C113.094,100.281,100.28,113.093,84.531,113.093z"
   id="path1054" />
	<path
   d="M129.921,28.251c-2.89,0-5.729,1.17-7.77,3.22c-2.051,2.04-3.23,4.88-3.23,7.78c0,2.891,1.18,5.73,3.23,7.78   c2.04,2.04,4.88,3.22,7.77,3.22c2.9,0,5.73-1.18,7.78-3.22c2.05-2.05,3.22-4.89,3.22-7.78c0-2.9-1.17-5.74-3.22-7.78   C135.661,29.421,132.821,28.251,129.921,28.251z"
   id="path1056" />
</g>
<g
   id="g1060">
</g>
<g
   id="g1062">
</g>
<g
   id="g1064">
</g>
<g
   id="g1066">
</g>
<g
   id="g1068">
</g>
<g
   id="g1070">
</g>
<g
   id="g1072">
</g>
<g
   id="g1074">
</g>
<g
   id="g1076">
</g>
<g
   id="g1078">
</g>
<g
   id="g1080">
</g>
<g
   id="g1082">
</g>
<g
   id="g1084">
</g>
<g
   id="g1086">
</g>
<g
   id="g1088">
</g>
<path
   style="fill:#ffffff;fill-opacity:1;stroke-width:0.71636868"
   d="M 39.224155,152.82598 C 27.628221,150.0359 17.77558,139.19882 15.80777,127.0699 14.838356,121.09476 14.813973,48.994239 15.77911,42.318683 c 0.9299,-6.431838 3.546202,-11.787614 8.229192,-16.845802 4.336709,-4.684163 8.945206,-7.452065 15.058838,-9.044464 6.273355,-1.634001 84.65537,-1.634001 90.92873,0 6.11362,1.592399 10.72212,4.360301 15.05883,9.044464 4.68299,5.058188 7.2993,10.413964 8.22919,16.845802 0.9287,6.423501 0.9232,77.896617 -0.006,84.328187 -1.52532,10.5522 -8.01044,19.25588 -17.88373,24.0018 l -5.37281,2.58259 -44.056669,0.12018 c -24.23117,0.0661 -45.264208,-0.17036 -46.740084,-0.52546 z M 93.48611,127.43883 c 20.19121,-4.2392 34.69362,-22.09498 34.73329,-42.764613 0.0137,-7.147484 -1.01642,-11.871251 -4.0162,-18.416513 C 118.98516,54.872383 109.74638,46.667913 97.784322,42.796498 86.355283,39.09759 71.654931,40.788582 61.965889,46.916718 54.2198,51.815973 48.530482,58.248597 44.859803,66.257704 c -2.999779,6.545262 -4.02992,11.269029 -4.016201,18.416513 0.05319,27.711273 25.578291,48.446823 52.642508,42.764613 z m 41.92646,-78.448855 c 5.13682,-2.620608 7.20952,-9.731205 4.38562,-15.045277 -1.99233,-3.749206 -5.33803,-5.720294 -9.70412,-5.717095 -6.76319,0.0049 -11.16924,4.411002 -11.17419,11.17419 -0.006,8.627902 8.58485,13.622463 16.49269,9.588182 z"
   id="path5343"
   inkscape:connector-curvature="0" /><path
   style="fill:#ffffff;fill-opacity:1;stroke-width:0.71636868"
   d="M 77.902171,112.0244 C 70.147447,110.06492 62.603585,103.86271 58.98312,96.470047 57.155819,92.73886 56.960002,91.613363 56.955876,84.818049 c -0.0042,-6.954051 0.164143,-7.873378 2.230328,-12.178267 4.055661,-8.449954 11.574787,-14.16847 20.913249,-15.905139 11.79296,-2.193131 24.296267,4.48533 29.777347,15.905139 2.06618,4.304889 2.23455,5.224216 2.23033,12.178267 -0.004,6.795314 -0.19995,7.920811 -2.02725,11.651998 -4.60931,9.411813 -13.7095,15.483043 -23.937095,15.969733 -3.053221,0.14529 -6.761498,-0.0416 -8.240614,-0.41538 z"
   id="path5345"
   inkscape:connector-curvature="0" /></svg>