<?xml version="1.0" encoding="UTF-8" standalone="no"?>
<!-- Generator: Adobe Illustrator 19.0.0, SVG Export Plug-In . SVG Version: 6.00 Build 0)  -->

<svg
   xmlns:dc="http://purl.org/dc/elements/1.1/"
   xmlns:cc="http://creativecommons.org/ns#"
   xmlns:rdf="http://www.w3.org/1999/02/22-rdf-syntax-ns#"
   xmlns:svg="http://www.w3.org/2000/svg"
   xmlns="http://www.w3.org/2000/svg"
   xmlns:sodipodi="http://sodipodi.sourceforge.net/DTD/sodipodi-0.dtd"
   xmlns:inkscape="http://www.inkscape.org/namespaces/inkscape"
   version="1.1"
   id="Layer_1"
   x="0px"
   y="0px"
   viewBox="0 0 504.4 504.4"
   style="enable-background:new 0 0 504.4 504.4;"
   xml:space="preserve"
   sodipodi:docname="linkedin-svgrepo-com.svg"
   inkscape:version="0.92.4 (33fec40, 2019-01-16)"><metadata
   id="metadata937"><rdf:RDF><cc:Work
       rdf:about=""><dc:format>image/svg+xml</dc:format><dc:type
         rdf:resource="http://purl.org/dc/dcmitype/StillImage" /></cc:Work></rdf:RDF></metadata><defs
   id="defs935" /><sodipodi:namedview
   pagecolor="#ffffff"
   bordercolor="#666666"
   borderopacity="1"
   objecttolerance="10"
   gridtolerance="10"
   guidetolerance="10"
   inkscape:pageopacity="0"
   inkscape:pageshadow="2"
   inkscape:window-width="1610"
   inkscape:window-height="986"
   id="namedview933"
   showgrid="false"
   inkscape:zoom="1.5344964"
   inkscape:cx="252.2"
   inkscape:cy="252.2"
   inkscape:window-x="70"
   inkscape:window-y="27"
   inkscape:window-maximized="1"
   inkscape:current-layer="Layer_1" />
<g
   id="g900">
	<g
   id="g898">
		<path
   d="M377.6,0.2H126.4C56.8,0.2,0,57,0,126.6v251.6c0,69.2,56.8,126,126.4,126H378c69.6,0,126.4-56.8,126.4-126.4V126.6    C504,57,447.2,0.2,377.6,0.2z M168,408.2H96v-208h72V408.2z M131.6,168.2c-20.4,0-36.8-16.4-36.8-36.8c0-20.4,16.4-36.8,36.8-36.8    c20.4,0,36.8,16.4,36.8,36.8C168,151.8,151.6,168.2,131.6,168.2z M408.4,408.2H408h-60V307.4c0-24.4-3.2-55.6-36.4-55.6    c-34,0-39.6,26.4-39.6,54v102.4h-60v-208h56v28h1.6c8.8-16,29.2-28.4,61.2-28.4c66,0,77.6,38,77.6,94.4V408.2z"
   id="path896" />
	</g>
</g>
<g
   id="g902">
</g>
<g
   id="g904">
</g>
<g
   id="g906">
</g>
<g
   id="g908">
</g>
<g
   id="g910">
</g>
<g
   id="g912">
</g>
<g
   id="g914">
</g>
<g
   id="g916">
</g>
<g
   id="g918">
</g>
<g
   id="g920">
</g>
<g
   id="g922">
</g>
<g
   id="g924">
</g>
<g
   id="g926">
</g>
<g
   id="g928">
</g>
<g
   id="g930">
</g>
<path
   style="fill:#ffffff;fill-opacity:1;stroke-width:0.65167958"
   d="M 108.17881,502.54136 C 66.960872,496.22493 31.815515,470.59863 13.40869,433.43954 7.3857095,421.28055 3.6825377,409.46919 1.4945703,395.43917 0.39834931,388.40981 0.32583979,379.49477 0.32583979,251.74382 V 115.54279 L 1.7673728,107.37197 C 5.4367607,86.573332 12.264151,70.004137 24.112103,53.144195 29.092402,46.0571 43.849432,30.960865 50.831007,25.81113 64.026267,16.078067 79.455765,8.5961626 94.270293,4.7470249 110.22377,0.6019619 99.169998,0.89691957 247.3124,0.66326664 343.26317,0.51193127 384.37379,0.66070866 389.70439,1.1785767 442.39307,6.297285 487.18642,44.778272 500.07133,95.992402 c 4.18039,16.615978 3.92192,7.454838 4.17386,147.931268 0.24472,136.44031 0.0907,145.31423 -2.75755,158.92043 -10.98308,52.4658 -52.94649,91.95655 -106.00177,99.75571 -6.11958,0.89958 -22.89353,1.01072 -144.02119,0.95423 -116.51276,-0.0543 -138.02437,-0.20638 -143.28587,-1.01268 z M 168.13333,304.20403 V 199.93529 H 131.96511 95.796898 v 104.26874 104.26873 h 36.168212 36.16822 z m 104.27408,48.38721 c 0.003,-33.31513 0.27138,-58.25001 0.66413,-61.74664 2.01219,-17.91434 8.70057,-29.73913 19.74433,-34.90713 7.77718,-3.63938 18.55713,-4.76995 27.47328,-2.8813 14.7379,3.12182 22.80392,13.56316 26.17132,33.87835 0.93105,5.61691 1.11959,14.45829 1.3654,64.02752 l 0.2852,57.51072 h 30.24601 30.24602 V 344.7028 c 0,-38.19477 -0.2707,-67.10354 -0.67496,-72.08199 -3.50247,-43.13256 -18.8355,-63.94935 -52.09568,-70.72734 -21.3669,-4.3543 -46.56944,-2.42291 -62.11647,4.76025 -9.70281,4.48298 -18.92564,12.09821 -22.83532,18.85498 -0.77614,1.34133 -1.63111,2.44104 -1.89992,2.4438 -0.26882,0.003 -0.48876,-6.29998 -0.48876,-14.00609 v -14.01112 h -28.34807 -28.34806 v 104.26874 104.26873 h 30.3031 30.3031 l 0.005,-55.88152 z M 142.96822,166.61978 c 18.84538,-6.32729 30.17692,-28.17026 23.96942,-46.20404 -3.16483,-9.19432 -9.42276,-16.99602 -17.14736,-21.377453 -4.66796,-2.647702 -12.53927,-4.675084 -18.15101,-4.675084 -5.30364,0 -13.25693,1.952419 -17.80683,4.371323 -5.04413,2.681664 -12.84072,10.734914 -15.326204,15.830744 -5.22804,10.71875 -5.259829,22.19463 -0.09131,32.96494 5.216094,10.86946 15.028384,18.32011 26.933484,20.45109 4.73353,0.84729 12.92668,0.21419 17.61981,-1.36152 z"
   id="path939"
   inkscape:connector-curvature="0" /><path
   style="fill:#000000;fill-opacity:1;stroke-width:0.65167958"
   d="M 96.448578,304.20403 V 200.58697 h 35.516532 35.51654 V 304.20403 407.82108 H 131.96511 96.448578 Z"
   id="path941"
   inkscape:connector-curvature="0" /><path
   style="fill:#000000;fill-opacity:1;stroke-width:0.65167958"
   d="m 123.95508,167.0091 c -28.123442,-6.10684 -38.378734,-40.89255 -18.05715,-61.24943 17.6162,-17.646787 47.5306,-12.735437 58.23305,9.56071 4.17209,8.69163 4.94121,15.56755 2.715,24.27199 -1.7819,6.96713 -4.81283,12.34058 -9.7912,17.35853 -8.94205,9.01314 -21.01596,12.68211 -33.0997,10.0582 z"
   id="path943"
   inkscape:connector-curvature="0" /><path
   style="fill:none;stroke:#000000;stroke-width:1px;stroke-linecap:butt;stroke-linejoin:miter;stroke-opacity:1"
   d="m 347.34522,325.18811 0.76585,83.28465 L 408.4,408.2"
   id="path949"
   inkscape:connector-curvature="0" /><path
   style="fill:#000000;fill-opacity:1;stroke-width:0.65167958"
   d="M 212.44754,304.20403 V 200.58697 h 27.69638 27.69639 v 14.01112 c 0,15.7592 0.25032,16.45595 3.87997,10.79962 2.71667,-4.23356 10.49513,-11.56589 15.48568,-14.59748 18.45195,-11.20897 50.11747,-13.98702 75.45373,-6.61963 25.63139,7.45321 38.675,24.97873 43.82132,58.87875 0.90479,5.96005 1.08617,16.5296 1.29419,75.41555 l 0.24193,68.48406 -16.16193,0.42965 c -8.88905,0.2363 -22.20429,0.43028 -29.58941,0.43106 l -13.42749,0.001 -0.45661,-57.18488 c -0.48266,-60.44532 -0.68133,-64.44442 -3.68246,-74.12855 -5.01167,-16.17176 -14.58829,-23.87154 -30.89729,-24.84201 -7.81294,-0.46491 -15.48615,0.94086 -21.58306,3.95411 -11.07107,5.47162 -17.17811,15.90318 -19.49256,33.29559 -0.769,5.77881 -0.95292,17.81316 -0.96321,63.02422 l -0.0127,55.88152 h -29.65142 -29.65142 z"
   id="path951"
   inkscape:connector-curvature="0" /></svg>