<?xml version="1.0" encoding="UTF-8" standalone="no"?>
<!-- Generator: Adobe Illustrator 19.0.0, SVG Export Plug-In . SVG Version: 6.00 Build 0)  -->

<svg
   xmlns:dc="http://purl.org/dc/elements/1.1/"
   xmlns:cc="http://creativecommons.org/ns#"
   xmlns:rdf="http://www.w3.org/1999/02/22-rdf-syntax-ns#"
   xmlns:svg="http://www.w3.org/2000/svg"
   xmlns="http://www.w3.org/2000/svg"
   xmlns:sodipodi="http://sodipodi.sourceforge.net/DTD/sodipodi-0.dtd"
   xmlns:inkscape="http://www.inkscape.org/namespaces/inkscape"
   version="1.1"
   id="Layer_1"
   x="0px"
   y="0px"
   viewBox="0 0 511.271 511.271"
   style="enable-background:new 0 0 511.271 511.271;"
   xml:space="preserve"
   sodipodi:docname="twitter.svg"
   inkscape:version="0.92.4 (33fec40, 2019-01-16)"><metadata
   id="metadata5466"><rdf:RDF><cc:Work
       rdf:about=""><dc:format>image/svg+xml</dc:format><dc:type
         rdf:resource="http://purl.org/dc/dcmitype/StillImage" /></cc:Work></rdf:RDF></metadata><defs
   id="defs5464" /><sodipodi:namedview
   pagecolor="#ffffff"
   bordercolor="#666666"
   borderopacity="1"
   objecttolerance="10"
   gridtolerance="10"
   guidetolerance="10"
   inkscape:pageopacity="0"
   inkscape:pageshadow="2"
   inkscape:window-width="1610"
   inkscape:window-height="986"
   id="namedview5462"
   showgrid="false"
   inkscape:zoom="0.46159474"
   inkscape:cx="255.6355"
   inkscape:cy="255.6355"
   inkscape:window-x="70"
   inkscape:window-y="27"
   inkscape:window-maximized="1"
   inkscape:current-layer="Layer_1" />
<g
   id="g5429">
	<g
   id="g5427">
		<path
   d="M508.342,94.243c-2.603-2.603-6.942-3.471-10.414-2.603l-17.356,6.075c10.414-12.149,17.356-25.166,21.695-37.315    c1.736-4.339,0.868-7.81-1.736-10.414c-2.603-2.603-6.942-3.471-10.414-1.736c-24.298,10.414-45.125,19.092-62.481,24.298    c0,0.868-0.868,0-1.736,0c-13.885-7.81-47.729-25.166-72.027-25.166c-61.614,0.868-111.078,52.936-111.078,116.285v3.471    c-90.251-17.356-139.715-43.39-193.519-99.797L40.6,58.663l-5.207,10.414c-29.505,56.407-8.678,107.607,25.166,142.319    c-15.62-2.603-26.034-7.81-35.58-15.62c-3.471-2.603-7.81-3.471-12.149-0.868c-3.471,1.736-5.207,6.942-4.339,11.281    c12.149,40.786,42.522,73.763,75.498,93.722c-15.62,0-28.637-1.736-41.654-10.414c-3.471-1.736-8.678-1.736-12.149,0.868    s-5.207,6.942-3.471,11.281c15.62,44.258,45.993,67.688,94.59,73.763c-25.166,14.753-58.142,26.902-109.342,27.77    c-5.207,0-9.546,3.471-11.281,7.81c-1.736,5.207,0,9.546,3.471,13.017c31.241,25.166,100.664,39.919,186.576,39.919    c152.732,0,277.695-136.244,277.695-303.729v-2.603c19.092-9.546,34.712-27.77,42.522-52.936    C511.813,101.185,510.945,96.846,508.342,94.243z M456.274,143.707l-5.207,1.736v14.753    c0,157.939-117.153,286.373-260.339,286.373c-78.97,0-131.905-13.017-160.542-26.902c59.878-4.339,94.59-23.431,121.492-44.258    l21.695-15.62h-26.034c-49.464,0-79.837-13.885-97.193-46.861c15.62,5.207,32.108,5.207,50.332,4.339    c6.942-0.868,13.885-0.868,20.827-0.868l2.603-17.356c-32.976-9.546-72.027-39.051-91.119-78.969    c17.356,7.81,36.447,9.546,53.803,9.546h26.902L91.8,213.999c-18.224-13.017-72.027-59.01-45.993-124.963    c55.539,54.671,108.475,79.837,203.932,97.193l10.414,1.736v-24.298c0-53.803,41.654-98.061,93.722-98.929    c19.959-0.868,52.936,17.356,62.481,22.563c5.207,2.603,10.414,3.471,15.62,1.736c13.017-4.339,28.637-10.414,45.993-17.356    c-7.81,13.017-18.224,25.166-32.108,36.448c-3.471,2.603-4.339,7.81-2.603,12.149c1.736,4.339,6.942,6.075,11.281,4.339    l33.844-11.281C482.308,124.616,472.762,137.633,456.274,143.707z"
   id="path5425" />
	</g>
</g>
<g
   id="g5431">
</g>
<g
   id="g5433">
</g>
<g
   id="g5435">
</g>
<g
   id="g5437">
</g>
<g
   id="g5439">
</g>
<g
   id="g5441">
</g>
<g
   id="g5443">
</g>
<g
   id="g5445">
</g>
<g
   id="g5447">
</g>
<g
   id="g5449">
</g>
<g
   id="g5451">
</g>
<g
   id="g5453">
</g>
<g
   id="g5455">
</g>
<g
   id="g5457">
</g>
<g
   id="g5459">
</g>
<path
   style="fill:#ffffff;fill-opacity:1;stroke-width:2.16640258"
   d="m 128.68431,442.64103 c -35.892643,-3.91534 -86.440822,-15.88608 -89.760149,-21.25687 -0.610843,-0.98836 4.468362,-2.39214 11.287124,-3.11951 34.683412,-3.6997 72.459645,-19.54871 105.553055,-44.28476 l 19.49762,-14.57371 -30.32963,-1.27112 c -32.28712,-1.35315 -43.54198,-3.6022 -60.15538,-12.02084 -10.695667,-5.41991 -25.376643,-18.61419 -29.699909,-26.69229 -2.285848,-4.27113 -2.051198,-4.45694 3.627223,-2.87198 6.652632,1.85689 60.826666,1.82129 62.689136,-0.0412 0.6358,-0.6358 1.66028,-4.9157 2.27662,-9.51088 l 1.12063,-8.35488 -11.80584,-4.89323 C 95.153096,286.35894 80.041756,276.06858 64.514843,260.74322 52.510279,248.89448 35.529001,226.89601 35.529001,223.19338 c 0,-0.63886 4.143245,0.35262 9.207211,2.20329 9.114978,3.33114 68.783278,7.1599 68.783278,4.41364 0,-0.71551 -7.06789,-6.53765 -15.706416,-12.93808 -22.480181,-16.65594 -39.891114,-36.39274 -49.083702,-55.64062 -7.299955,-15.285 -7.775414,-17.58 -7.640535,-36.88011 0.07911,-11.31945 1.284194,-23.28966 2.677973,-26.600474 l 2.534144,-6.019653 17.652616,15.254197 c 48.81664,42.18403 104.19305,65.81201 189.84049,81.00105 l 7.0408,1.24864 v -15.89817 c 0,-21.19498 3.10201,-36.39614 10.7717,-52.78588 17.9358,-38.327921 62.49255,-61.982188 98.63163,-52.361517 4.76609,1.26879 18.98726,7.134884 31.60259,13.035764 l 22.93701,10.728872 12.80864,-4.090658 c 7.04477,-2.249861 17.92678,-6.157404 24.18227,-8.683428 6.25549,-2.526024 11.37361,-3.673272 11.37361,-2.54944 0,1.123833 -7.36583,9.919645 -16.36853,19.546252 -13.42823,14.358825 -16.09986,18.364105 -14.87283,22.297085 2.96071,9.48988 5.85026,9.79015 26.52911,2.75682 8.54934,-2.90782 15.54426,-4.37295 15.54426,-3.25584 0,4.57522 -15.99972,19.28939 -24.99846,22.98985 l -9.64773,3.96736 -0.0173,21.66402 c -0.0217,27.93628 -4.69132,56.81328 -14.01292,86.65611 -28.56512,91.45041 -100.09284,162.12303 -187.46193,185.22085 -15.36001,4.06072 -25.24192,4.97672 -59.57607,5.52235 -22.63891,0.35975 -49.44814,-0.24983 -59.57607,-1.35463 z"
   id="path6011"
   inkscape:connector-curvature="0" /></svg>